<svg xmlns="http://www.w3.org/2000/svg" viewBox="0 0 640 160"><defs><linearGradient id="g" x1="0" x2="1"><stop stop-color="#8bd3ff"/><stop offset=".5" stop-color="#b98cff"/><stop offset="1" stop-color="#ffe28a"/></linearGradient></defs><rect width="640" height="160" fill="none"/><path d="M54 124V36h18v35h47V36h18v88h-18V87H72v37H54Zm124 0V36h75v16h-57v20h49v15h-49v21h60v16h-78Zm111 0 37-88h20l37 88h-20l-8-20h-39l-8 20h-19Zm32-35h27l-13-33-14 33Zm97 35V36h18l45 58V36h18v88h-17l-46-59v59h-18Zm132 0V36h18v88h-18Z" fill="url(#g)"/><text x="54" y="148" font-family="Arial, sans-serif" font-size="20" letter-spacing="8" fill="#dfe8ff">VTUBER CONSTELLATION</text></svg>