<svg xmlns="http://www.w3.org/2000/svg" viewBox="0 0 480 900">
  <defs>
    <linearGradient id="bg" x1="0" y1="0" x2="1" y2="1">
      <stop offset="0" stop-color="#5b3b00"/>
      <stop offset="0.55" stop-color="#120a00"/>
      <stop offset="1" stop-color="#000000"/>
    </linearGradient>
    <radialGradient id="glow" cx="42%" cy="28%" r="62%">
      <stop offset="0" stop-color="#ffd850" stop-opacity="0.75"/>
      <stop offset="0.36" stop-color="#ffd850" stop-opacity="0.25"/>
      <stop offset="1" stop-color="#ffd850" stop-opacity="0"/>
    </radialGradient>
    <filter id="blur"><feGaussianBlur stdDeviation="18"/></filter>
  </defs>
  <rect width="480" height="900" fill="url(#bg)"/>
  <rect width="480" height="900" fill="url(#glow)"/>
  <g opacity="0.38" stroke="#ffd850" stroke-width="1">
    <path d="M60 120 L230 230 L390 98" fill="none"/>
    <path d="M80 530 L250 400 L410 580" fill="none"/>
    <path d="M95 720 L220 620 L370 700" fill="none"/>
  </g>
  <g opacity="0.75" fill="#ffd850" filter="url(#blur)">
    <circle cx="92" cy="180" r="42"/><circle cx="380" cy="250" r="32"/><circle cx="318" cy="680" r="48"/>
  </g>
  <g opacity="0.34" fill="white">
    <circle cx="68" cy="80" r="2"/><circle cx="170" cy="160" r="1.5"/><circle cx="405" cy="110" r="2"/><circle cx="320" cy="340" r="1.7"/><circle cx="93" cy="420" r="1.4"/><circle cx="430" cy="620" r="2"/><circle cx="230" cy="760" r="1.5"/>
  </g>
  <text x="240" y="380" text-anchor="middle" font-size="168" dominant-baseline="middle">🐥</text>
  <text x="240" y="505" text-anchor="middle" font-family="Georgia,serif" font-size="72" fill="#ffd850" opacity="0.92">☀</text>
  <text x="240" y="690" text-anchor="middle" font-family="Georgia,serif" font-size="24" fill="white" opacity="0.55" letter-spacing="4">HEXARIA</text>
  <rect x="24" y="24" width="432" height="852" rx="18" fill="none" stroke="#ffd850" stroke-opacity="0.28"/>
</svg>